<svg xmlns="http://www.w3.org/2000/svg" xmlns:xlink="http://www.w3.org/1999/xlink" width="128.899" height="128.067" viewBox="0 0 128.899 128.067">
  <defs>
    <radialGradient id="radial-gradient" cx="0.5" cy="0.5" r="0.5" gradientUnits="objectBoundingBox">
      <stop offset="0"/>
      <stop offset="0.128" stop-color="#0b0b0b"/>
      <stop offset="0.522"/>
      <stop offset="0.847"/>
      <stop offset="1" stop-color="#545454"/>
    </radialGradient>
  </defs>
  <g id="ball" transform="translate(-0.137 -0.134)">
    <g id="Group_8" data-name="Group 8">
      <ellipse id="Ellipse_1" data-name="Ellipse 1" cx="63.844" cy="63.662" rx="63.844" ry="63.662" transform="translate(1.126 0.765)" fill="#fff"/>
      <path id="Path_230" data-name="Path 230" d="M198.6,282.376a64.041,64.041,0,0,0,2.156-16.514q0-1.634-.081-3.251a35.78,35.78,0,0,0-.827-7.837c-.043-.168-.091-.329-.139-.487q-.122-.677-.26-1.351c.1.091.193.1.189-.114a24.842,24.842,0,0,0-1.035-5.465c-2.052-6.966-6.56-14.446-8.828-17.812-2.054-3.049-7.906-10.453-13.6-14.534a20.382,20.382,0,0,0-3.059-1.848l-.04,0a64.167,64.167,0,0,0-7.395-4.422c-1.848-.979-3.648-1.814-4.993-2.365q-.419-.171-.955-.371c-1.107-.411-2.559-.9-4.143-1.369a64.092,64.092,0,0,0-11.035-2.382c.027-.048,0-.1-.139-.138a24.33,24.33,0,0,0-3.511-.591c-7.79-.782-18.123,1.066-22.39,2.323-3.412,1.006-13.1,4.332-18.877,8.571a15.806,15.806,0,0,0-3.146,2.932,1.729,1.729,0,0,0-.137.394q-.761.606-1.5,1.235a41.916,41.916,0,0,0-7.685,7.29c-.186.217-.393.468-.615.747a66.643,66.643,0,0,0-6.8,10.595q-.792,1.473-1.509,2.992c-.035-.043-.088-.034-.168.088a20.772,20.772,0,0,0-1.574,2.722c-3.678,7.55-4.648,18.984-4.648,23.552,0,3.67.96,14.838,3.753,21.669A64.244,64.244,0,0,0,96.641,316.2a40.054,40.054,0,0,0,5.187,3.687,64.185,64.185,0,0,0,9.62,5.054c1.607.719,3.156,1.344,4.56,1.838a.452.452,0,0,1,.335-.014,58.381,58.381,0,0,0,18.5,2.494,30.923,30.923,0,0,0,4.5-.431c-.383-.278-.761-.565-1.137-.855-.532-.409.083-1.151.629-.805.75.476,1.49.929,2.246,1.347,3.492-.691,6.955-1.682,10.483-2.158,2.34-.8,4.966-1.079,7.232-1.947a105.82,105.82,0,0,0,11.486-5.041,44.706,44.706,0,0,0,10.967-7.948c2.863-2.876,5.99-5.713,8.583-8.828a.586.586,0,0,1,.369-.216c2.281-3.335,6.169-10.06,7.874-16.084a23.4,23.4,0,0,0,.729-3.479C198.728,282.485,198.668,282.36,198.6,282.376Z" transform="translate(-71.723 -201.202)" fill="#f2f2f2"/>
      <path id="Path_232" data-name="Path 232" d="M85.4,250.05a5.021,5.021,0,0,1-.892-1.15,14.775,14.775,0,0,1-1.866-4.879,15.4,15.4,0,0,1-.29-4.918,3.932,3.932,0,0,1,.145-.617c.1-.309.227-.638.371-.982a61.693,61.693,0,0,1,7.311-11.713c.222-.279.429-.53.615-.747a39.514,39.514,0,0,1,8.467-7.8q.531-.332,1.078-.626a5.252,5.252,0,0,1,.514-.228,16.974,16.974,0,0,1,4.245-.857,17.265,17.265,0,0,1,4.538.1,10.039,10.039,0,0,1,1.575.409c.48.17,1.076.4.884.55a9.094,9.094,0,0,0-.715.918c-2.6,3.733-7.024,13.75-6.5,18.761.022.2.4,1.109.02,1.107a3.013,3.013,0,0,0-.8-.026c-4.724.817-14.305,8.379-17.423,11.874a8.846,8.846,0,0,0-.721.9C85.828,250.29,85.631,250.246,85.4,250.05Zm24.881,63.873a6.369,6.369,0,0,1-.432-.563c-2.39-3.457-6.676-14.567-6.231-19.5.044-.492.4-1.029.319-1.222a.1.1,0,0,0-.043-.05,6.991,6.991,0,0,0-1.212-.3c-4.736-.758-14.381-9.437-16.915-12.818q-.185-.247-.318-.455c-.045-.109-.276.025-.557.253a8.619,8.619,0,0,0-.956.928,9.936,9.936,0,0,0-1.678,3.861,21.1,21.1,0,0,0-.817,6.6,4.675,4.675,0,0,0,.084.557q.07.3.155.6c1.209,4.262,4.6,8.875,6.354,11.435.06.088.122.178.186.27,1.849,2.645,5.685,7.338,8.922,9.709q.29.213.573.4a3.663,3.663,0,0,0,.471.256,21.217,21.217,0,0,0,6.666,1.3,11.8,11.8,0,0,0,4.734-.571,1.88,1.88,0,0,0,.678-.377A.2.2,0,0,0,110.276,313.923Zm67-2.845a7.34,7.34,0,0,1-1.038.336c-4.212,1.084-15.154,1.583-19.377-.468-.261-.127-.812-.932-1-.435-.074.2-.145.512-.24.7-2.017,3.947-12.561,10.1-17.271,11.7a9.655,9.655,0,0,1-1.111.314c-.113.008-.066.242.051.545a5.721,5.721,0,0,0,.7,1.279,12.519,12.519,0,0,0,3.623,3.076,14.445,14.445,0,0,0,4.433,1.971c.119.022.234.038.342.049.334.028.684.04,1.048.039,4.223-.007,10.291-1.8,13.2-2.651l.312-.092a45.982,45.982,0,0,0,11.242-5.177q.452-.313.847-.629c.079-.062.16-.133.247-.212a15.969,15.969,0,0,0,2.923-4.107,15.665,15.665,0,0,0,.887-2.071,11.545,11.545,0,0,0,.606-3.069,2.076,2.076,0,0,0-.134-1A.2.2,0,0,0,177.273,311.078Zm18.232-63.47a8.66,8.66,0,0,1,0,1.171c-.228,4.4-2.641,14.914-5.905,18.25-.114.117-.965.5-.858.677.081.143.514.376.716.581,3.117,3.177,4.989,14.763,4.893,19.63-.009.414-.03.779-.067,1.086-.033.124.354.1.83.021a8.828,8.828,0,0,0,1.51-.388,10.814,10.814,0,0,0,2.423-1.548,10.307,10.307,0,0,0,2.569-3.055q.155-.288.284-.579c.125-.289.242-.6.354-.93,1.376-4.052,1.833-10.842,1.961-13.943q.009-.2.015-.381c.1-2.882.235-8.794-.768-12.647-.1-.391-.216-.761-.342-1.1-.06-.161-.131-.338-.216-.528a13.838,13.838,0,0,0-2.694-3.867,12.7,12.7,0,0,0-1.349-1.19,11.976,11.976,0,0,0-1.655-1.069,3.889,3.889,0,0,0-1.33-.484C195.618,247.293,195.476,247.384,195.5,247.607Zm-55.659-38.682c.215.06.468.142.751.246,4.079,1.487,14.737,7.336,17.006,12.613a2.678,2.678,0,0,1,.16.547c.045.215.076.352.216.348a7.309,7.309,0,0,0,.9-.5c4.631-2.1,15.717-.315,19.858,1.277a7.687,7.687,0,0,1,.935.42c.149.1.2-.237.228-.629a8.083,8.083,0,0,0-.032-1.312,12.51,12.51,0,0,0-1.509-4.486,18.365,18.365,0,0,0-2.428-3.577c-.112-.122-.22-.235-.325-.336-.25-.209-.516-.417-.794-.627a53.98,53.98,0,0,0-10.5-5.762q-.419-.171-.955-.371c-3.327-1.236-9.727-3.134-13.615-3.37-.263-.016-.516-.024-.755-.024-.155,0-.32.008-.494.025a13.108,13.108,0,0,0-4.19,1.3,11.537,11.537,0,0,0-4.048,3.15,2.969,2.969,0,0,0-.476.767C139.72,208.787,139.738,208.895,139.846,208.926Zm-16.155,70.108a1.936,1.936,0,0,0,.63.565c.175.116.382.24.618.373a94.723,94.723,0,0,0,12.117,4.959,78.461,78.461,0,0,0,11.849,3.415,3.311,3.311,0,0,0,.945.021,2.061,2.061,0,0,0,.5-.211c1.827-1.027,5.433-5.215,8.793-9.648a81.86,81.86,0,0,0,7.117-10.694,5.824,5.824,0,0,0,.36-.884,1.29,1.29,0,0,0,.06-.339,6.686,6.686,0,0,0-.8-2.053c-2.643-5.227-11.118-17.97-14.493-20.429a2.721,2.721,0,0,0-.615-.353c-2.395-.887-15.657,3.014-22.5,5.71-.735.289-1.4.565-1.963.819a7.1,7.1,0,0,0-2.05,1.178,1.284,1.284,0,0,0-.18.314,5.618,5.618,0,0,0-.28.934,80.166,80.166,0,0,0-.96,12.851c-.084,5.564.124,11.076.676,13A2.531,2.531,0,0,0,123.692,279.034Z" transform="translate(-75.337 -201.978)" fill="url(#radial-gradient)"/>
    </g>
  </g>
</svg>
